<svg xmlns="http://www.w3.org/2000/svg" viewBox="0 0 121.03 91.03"><defs><style>.cls-1{fill:#ec8c4c;}.cls-2{fill:#fff;}</style></defs><g id="Layer_2" data-name="Layer 2"><g id="Layer_1-2" data-name="Layer 1"><circle class="cls-1" cx="83.85" cy="37.18" r="37.18"/><path id="cloud" class="cls-2" d="M96.16,56.52a19.09,19.09,0,0,0-4.58.58,14.7,14.7,0,0,0,1.71-6.85c0-8.46-7.19-15.32-16.06-15.32a16.5,16.5,0,0,0-9.72,3.14C65.62,27.23,55.74,19,43.84,19c-13.26,0-24,10.24-24,22.88a21.69,21.69,0,0,0,.32,3.71C8.73,47.31,0,56.76,0,68.15,0,80.65,10.51,90.8,23.56,91h72.6c10,0,18.1-7.72,18.1-17.25S106.16,56.52,96.16,56.52Z"/></g></g></svg>