<svg xmlns="http://www.w3.org/2000/svg" viewBox="0 0 145.51 91.77"><defs><style>.cls-1{fill:#fff;}</style></defs><g id="Layer_2" data-name="Layer 2"><g id="Layer_1-2" data-name="Layer 1"><path id="cloud" class="cls-1" d="M122.46,47.83a23.9,23.9,0,0,0-5.84.74,18.61,18.61,0,0,0,2.19-8.73c0-10.78-9.16-19.51-20.46-19.51a21,21,0,0,0-12.38,4C83.56,10.53,71,0,55.83,0,39,0,25.26,13.05,25.26,29.14a28.39,28.39,0,0,0,.41,4.73C11.12,36.1,0,48.13,0,62.63,0,78.55,13.39,91.48,30,91.76h92.45c12.73,0,23-9.83,23-22S135.19,47.83,122.46,47.83Z"/></g></g></svg>