<svg xmlns="http://www.w3.org/2000/svg" viewBox="0 0 133.16 82.19"><defs><style>.cls-1{fill:#333;}.cls-2{fill:#fff;}</style></defs><g id="Layer_2" data-name="Layer 2"><g id="Layer_1-2" data-name="Layer 1"><path id="cloud" class="cls-1" d="M115.06,37.55a18.73,18.73,0,0,0-4.58.59,14.65,14.65,0,0,0,1.71-6.86C112.19,22.82,105,16,96.13,16a16.5,16.5,0,0,0-9.72,3.14C84.52,8.27,74.65,0,62.74,0c-13.25,0-24,10.25-24,22.88a21.51,21.51,0,0,0,.32,3.71C27.63,28.35,18.9,37.79,18.9,49.18c0,12.5,10.51,22.65,23.57,22.87h72.59c10,0,18.1-7.72,18.1-17.25S125.06,37.55,115.06,37.55Z"/><path id="cloud-2" data-name="cloud" class="cls-2" d="M96.16,47.68a19.09,19.09,0,0,0-4.58.58,14.7,14.7,0,0,0,1.71-6.85c0-8.46-7.19-15.32-16.06-15.32a16.5,16.5,0,0,0-9.72,3.14c-1.89-10.84-11.77-19.1-23.67-19.1-13.26,0-24,10.24-24,22.88a21.6,21.6,0,0,0,.32,3.71C8.73,38.48,0,47.92,0,59.31,0,71.81,10.51,82,23.56,82.18h72.6c10,0,18.1-7.72,18.1-17.25S106.16,47.68,96.16,47.68Z"/></g></g></svg>