<svg xmlns="http://www.w3.org/2000/svg" viewBox="0 0 121.03 126.4"><defs><style>.cls-1{fill:#ec8c4c;}.cls-2{fill:#fff;}.cls-3{fill:aqua;}</style></defs><g id="Layer_2" data-name="Layer 2"><g id="Layer_1-2" data-name="Layer 1"><circle class="cls-1" cx="83.85" cy="37.18" r="37.18"/><path id="cloud" class="cls-2" d="M96.16,56.52a19.09,19.09,0,0,0-4.58.58,14.7,14.7,0,0,0,1.71-6.85c0-8.46-7.19-15.32-16.06-15.32a16.5,16.5,0,0,0-9.72,3.14C65.62,27.23,55.74,19,43.84,19c-13.26,0-24,10.24-24,22.88a21.69,21.69,0,0,0,.32,3.71C8.73,47.31,0,56.76,0,68.15,0,80.65,10.51,90.8,23.56,91h72.6c10,0,18.1-7.72,18.1-17.25S106.16,56.52,96.16,56.52Z"/><rect class="cls-3" x="15.68" y="108.47" width="8" height="13.3" rx="4" transform="translate(50.49 2.47) rotate(25)"/><rect class="cls-3" x="24.4" y="86.54" width="8" height="19.74" rx="4" transform="translate(43.4 -2.97) rotate(25)"/><rect class="cls-3" x="53.5" y="86.74" width="8" height="15.4" rx="4" transform="translate(45.3 -15.45) rotate(25)"/><rect class="cls-3" x="43.67" y="103.94" width="8" height="23.17" rx="4" transform="translate(53.29 -9.32) rotate(25)"/><rect class="cls-3" x="81.39" y="86.68" width="8" height="16.77" rx="4" transform="translate(48.18 -27.18) rotate(25)"/><rect class="cls-3" x="72.26" y="105.73" width="8" height="17.84" rx="4" transform="translate(55.6 -21.49) rotate(25)"/></g></g></svg>