<svg xmlns="http://www.w3.org/2000/svg" viewBox="0 0 106.03 120.56"><defs><style>.cls-1{fill:#333;}</style></defs><g id="Layer_2" data-name="Layer 2"><g id="Layer_1-2" data-name="Layer 1"><path class="cls-1" d="M105.86,71.82a3.12,3.12,0,0,0-3.81-2.21L83.7,74.49l-10-5.78a22.46,22.46,0,0,0,0-16.75l10-5.73,18.33,5A3.11,3.11,0,0,0,105.92,49h0a3.11,3.11,0,0,0-2.19-3.82L91.41,41.85l12.74-7.3a3.12,3.12,0,0,0,1.16-4.26h0a3.12,3.12,0,0,0-4.25-1.15L88.32,36.45l3.33-12.32a3.11,3.11,0,1,0-6-1.63l-5,18.33-10,5.73a22.32,22.32,0,0,0-14.55-8.43V26.61L69.55,13.18a3.11,3.11,0,0,0-4.4-4.4l-9,9V3.11a3.12,3.12,0,0,0-6.23,0V17.8l-9-9a3.11,3.11,0,1,0-4.41,4.4L49.9,26.61V38.13a22.35,22.35,0,0,0-14.48,8.34l-10-5.78L20.58,22.34a3.11,3.11,0,0,0-6,1.6l3.27,12.32L5.13,28.89A3.11,3.11,0,0,0,2,34.28l12.7,7.37L2.38,44.93A3.11,3.11,0,1,0,4,51l18.35-4.88,10,5.78a22.33,22.33,0,0,0,0,16.75l-10,5.73-18.32-5a3.11,3.11,0,0,0-1.63,6l12.31,3.34L1.87,86A3.12,3.12,0,0,0,5,91.42l12.74-7.31L14.37,96.43a3.11,3.11,0,0,0,6,1.63l5-18.33,10-5.73A22.32,22.32,0,0,0,49.9,82.43V94L36.47,107.38a3.11,3.11,0,1,0,4.41,4.4l9-9v14.69a3.12,3.12,0,0,0,6.23,0V102.76l9,9a3.11,3.11,0,0,0,4.4-4.4L56.13,94V82.43a22.35,22.35,0,0,0,14.48-8.34l10,5.78,4.88,18.35a3.11,3.11,0,0,0,6-1.6L88.19,84.29l12.7,7.38a3.12,3.12,0,0,0,4.26-1.14h0A3.11,3.11,0,0,0,104,86.28l-12.7-7.37,12.33-3.28A3.11,3.11,0,0,0,105.86,71.82ZM53,75.42A15.14,15.14,0,1,1,68.16,60.28,15.14,15.14,0,0,1,53,75.42Z"/></g></g></svg>